<?xml version="1.0" encoding="utf-8"?>
<!-- Generator: Adobe Illustrator 24.0.0, SVG Export Plug-In . SVG Version: 6.00 Build 0)  -->
<svg version="1.1" id="Layer_1" xmlns="http://www.w3.org/2000/svg" xmlns:xlink="http://www.w3.org/1999/xlink" x="0px" y="0px"
	 viewBox="0 0 450.5 220.5" style="enable-background:new 0 0 450.5 220.5;" xml:space="preserve">
<style type="text/css">
	.st0{fill:#EA5454;}
	.st1{fill:#2B2B2B;}
</style>
<g>
	<g>
		<g>
			<path class="st0" d="M263.3,94.6c-2,0-4.2-0.1-6.6-0.4c-2.4-0.2-4.7-0.5-7-0.9c-2.3-0.3-4.2-0.7-5.8-0.9l0.7-8.7
				c1.6,0.2,3.6,0.4,5.7,0.7c2.2,0.2,4.3,0.4,6.5,0.6c2.2,0.2,4,0.2,5.6,0.2c2,0,3.7-0.3,4.9-0.8c1.3-0.5,2.2-1.3,2.8-2.4
				c0.6-1.1,0.9-2.5,0.9-4.2c0-1.4-0.3-2.5-0.8-3.3c-0.6-0.8-1.6-1.5-3-2s-3.4-1-6-1.5c-3.2-0.6-5.9-1.3-8.2-2.1
				c-2.3-0.8-4.1-1.8-5.5-3c-1.4-1.2-2.5-2.7-3.1-4.6c-0.7-1.9-1-4.1-1-6.8c0-4.1,0.8-7.4,2.3-9.8c1.5-2.4,3.7-4.1,6.6-5.1
				c2.9-1,6.2-1.5,10.1-1.5c1.8,0,3.8,0.1,6,0.3c2.3,0.2,4.5,0.4,6.7,0.7c2.2,0.3,4.1,0.6,5.6,0.9l-0.5,8.8
				c-1.6-0.2-3.4-0.4-5.5-0.6c-2.1-0.2-4.2-0.4-6.2-0.5c-2-0.2-3.8-0.2-5.2-0.2c-2,0-3.6,0.2-4.9,0.6c-1.3,0.4-2.3,1.1-2.9,2
				c-0.6,0.9-1,2-1,3.4c0,1.6,0.3,2.8,1,3.7c0.6,0.9,1.7,1.5,3.2,2.1c1.5,0.5,3.6,1.1,6.3,1.7c3.1,0.7,5.8,1.4,8,2.2
				c2.2,0.8,4,1.8,5.3,2.9c1.4,1.1,2.4,2.6,3,4.3c0.6,1.8,1,4,1,6.6c0,4.3-0.8,7.7-2.3,10.2c-1.5,2.6-3.7,4.4-6.5,5.6
				C270.7,94,267.3,94.6,263.3,94.6z"/>
			<path class="st1" d="M302.8,94.7c-2.9,0-5.3-0.4-7.1-1.3c-1.8-0.8-3.1-2.3-3.9-4.4c-0.8-2.1-1.2-5-1.2-8.8V62.6H286v-8.8h4.7
				V43.1h10.6v10.6h10.2v8.8h-10.2v14.8c0,2.1,0.1,3.7,0.3,4.9c0.2,1.2,0.6,2,1.2,2.5c0.6,0.5,1.6,0.7,2.9,0.7c0.4,0,0.9,0,1.7-0.1
				c0.7-0.1,1.5-0.1,2.2-0.2c0.7-0.1,1.4-0.1,1.8-0.2l0.3,8.5c-0.8,0.2-1.8,0.3-2.9,0.5c-1.1,0.2-2.3,0.3-3.3,0.4
				C304.5,94.6,303.6,94.7,302.8,94.7z"/>
			<path class="st1" d="M334.6,94.6c-4.5,0-8.1-0.7-10.9-2.2c-2.7-1.5-4.7-3.8-5.9-6.9c-1.2-3.1-1.8-7.1-1.8-12.1
				c0-4.8,0.6-8.7,1.9-11.7c1.3-3,3.3-5.2,6.1-6.7c2.8-1.5,6.3-2.2,10.7-2.2c4.4,0,8,0.7,10.7,2.2c2.7,1.5,4.8,3.7,6.1,6.7
				c1.3,3,2,6.9,2,11.7c0,4.9-0.6,9-1.8,12.1c-1.2,3.1-3.2,5.4-5.9,6.9C342.8,93.9,339.2,94.6,334.6,94.6z M334.6,85.8
				c2.2,0,3.9-0.4,5-1.2c1.1-0.8,1.9-2.2,2.3-4c0.4-1.8,0.6-4.2,0.6-7.2c0-2.9-0.2-5.2-0.7-7c-0.5-1.7-1.3-3-2.4-3.7
				c-1.1-0.7-2.7-1.1-4.8-1.1c-2,0-3.6,0.4-4.7,1.1c-1.1,0.7-2,2-2.4,3.7c-0.5,1.7-0.7,4.1-0.7,7c0,3,0.2,5.4,0.6,7.2
				c0.4,1.8,1.2,3.2,2.3,4C330.7,85.4,332.4,85.8,334.6,85.8z"/>
			<path class="st1" d="M376.9,94.6c-4.6,0-8.1-0.7-10.7-2.1c-2.6-1.4-4.4-3.7-5.4-6.8c-1-3.1-1.6-7.3-1.6-12.4
				c0-5,0.6-9.1,1.8-12.1c1.2-3,3.1-5.2,5.7-6.5c2.6-1.3,6.1-2,10.3-2c1.1,0,2.4,0.1,3.9,0.2c1.5,0.2,3,0.4,4.5,0.6
				c1.5,0.2,2.8,0.5,3.9,0.7l-0.4,8.5c-1-0.1-2.2-0.2-3.4-0.3c-1.3-0.1-2.5-0.2-3.7-0.2s-2.2-0.1-2.9-0.1c-2.3,0-4.1,0.4-5.4,1.1
				c-1.3,0.7-2.2,1.9-2.7,3.5c-0.5,1.6-0.8,3.8-0.8,6.5c0,2.9,0.2,5.3,0.7,7c0.5,1.8,1.3,3,2.6,3.7c1.2,0.7,3.1,1.1,5.5,1.1
				c0.7,0,1.7,0,2.9-0.1c1.2-0.1,2.5-0.2,3.8-0.3c1.3-0.1,2.5-0.2,3.5-0.2l0.3,8.5c-1.1,0.2-2.3,0.4-3.8,0.7c-1.5,0.2-3,0.4-4.5,0.6
				C379.5,94.5,378.2,94.6,376.9,94.6z"/>
			<path class="st1" d="M396.2,93.7V37.4h10.6v31.4l4.7-0.2l8.3-14.9h11.1l-10.1,18.8l10.7,21.2h-11.2l-8.6-15.9l-4.9,0.2v15.6
				H396.2z"/>
		</g>
		<g>
			<g>
				<path class="st0" d="M245.7,159.4V105h20.5c4.5,0,8.3,0.6,11.2,1.9c3,1.2,5.2,3.3,6.7,6c1.5,2.8,2.3,6.5,2.3,11.1
					s-0.8,8.4-2.3,11.3c-1.5,2.9-3.8,5-6.7,6.4c-3,1.4-6.7,2-11.2,2h-9.5v15.8H245.7z M256.7,134.7h9.2c3.3,0,5.7-0.9,7.2-2.7
					c1.4-1.8,2.2-4.4,2.2-7.9c0-3.6-0.7-6.2-2.2-7.7c-1.4-1.5-3.8-2.3-7.2-2.3h-9.2V134.7z"/>
				<path class="st1" d="M292.9,113.1V104h10.7v9.1H292.9z M292.9,159.4v-40h10.6v40H292.9z"/>
				<path class="st1" d="M312.6,159.4v-56.3h10.6v56.3H312.6z"/>
				<path class="st1" d="M349.5,160.3c-4.5,0-8.1-0.7-10.9-2.2c-2.7-1.5-4.7-3.8-5.9-6.9c-1.2-3.1-1.8-7.1-1.8-12.1
					c0-4.8,0.6-8.7,1.9-11.7c1.3-3,3.3-5.2,6.1-6.7c2.8-1.5,6.3-2.2,10.7-2.2c4.4,0,8,0.7,10.7,2.2c2.7,1.5,4.8,3.7,6.1,6.7
					c1.3,3,2,6.9,2,11.7c0,4.9-0.6,9-1.8,12.1c-1.2,3.1-3.2,5.4-5.9,6.9C357.7,159.6,354.1,160.3,349.5,160.3z M349.5,151.5
					c2.2,0,3.9-0.4,5-1.2s1.9-2.2,2.3-4c0.4-1.8,0.6-4.2,0.6-7.2c0-2.9-0.2-5.2-0.7-7c-0.5-1.7-1.3-3-2.4-3.7
					c-1.1-0.7-2.7-1.1-4.8-1.1c-2,0-3.6,0.4-4.7,1.1c-1.1,0.7-2,2-2.4,3.7c-0.5,1.7-0.7,4.1-0.7,7c0,3,0.2,5.4,0.6,7.2
					c0.4,1.8,1.2,3.2,2.3,4C345.6,151.1,347.3,151.5,349.5,151.5z"/>
				<path class="st1" d="M389.4,160.4c-2.9,0-5.3-0.4-7.1-1.3c-1.8-0.8-3.1-2.3-3.9-4.4c-0.8-2.1-1.2-5-1.2-8.8v-17.6h-4.7v-8.8h4.7
					v-10.6h10.6v10.6h10.2v8.8h-10.2v14.8c0,2.1,0.1,3.7,0.3,4.9c0.2,1.2,0.6,2,1.2,2.5c0.6,0.5,1.6,0.7,2.9,0.7
					c0.4,0,0.9,0,1.7-0.1c0.7-0.1,1.5-0.1,2.2-0.2c0.7-0.1,1.4-0.1,1.8-0.2l0.3,8.5c-0.8,0.2-1.8,0.3-2.9,0.5
					c-1.1,0.2-2.3,0.3-3.3,0.4C391,160.3,390.1,160.4,389.4,160.4z"/>
			</g>
		</g>
	</g>
	<path class="st1" d="M137.5,39.4c-9.5-5.5-21.2-5.5-30.7,0L55.1,69.2v77.4l67,38.7l67-38.7V69.2L137.5,39.4z M75.1,69.2l31.7-18.3
		c9.5-5.5,21.2-5.5,30.7,0l36.3,21l-47,27.1L75.1,69.2z M179.1,140.8l-47,27.1v-60.3l47-27.1V140.8z"/>
	<polygon class="st0" points="225.2,99.5 122.1,159 19,99.5 55.1,78.7 55.1,90.2 39,99.5 122.1,147.5 205.2,99.5 189.1,90.2 
		189.1,78.7 	"/>
</g>
</svg>
