<?xml version="1.0" encoding="utf-8"?>
<!-- Generator: Adobe Illustrator 24.0.0, SVG Export Plug-In . SVG Version: 6.00 Build 0)  -->
<svg version="1.1" id="Layer_1" xmlns="http://www.w3.org/2000/svg" xmlns:xlink="http://www.w3.org/1999/xlink" x="0px" y="0px"
	 viewBox="0 0 500 308.2" style="enable-background:new 0 0 500 308.2;" xml:space="preserve">
<style type="text/css">
	.st0{fill:#EA5454;}
	.st1{fill:#FFFFFF;}
</style>
<g>
	<g>
		<g>
			<path class="st0" d="M288,137.6c-2,0-4.2-0.1-6.6-0.4c-2.4-0.2-4.7-0.5-7-0.9c-2.3-0.3-4.2-0.7-5.8-0.9l0.7-8.7
				c1.6,0.2,3.6,0.4,5.7,0.7c2.2,0.2,4.3,0.4,6.5,0.6c2.2,0.2,4,0.2,5.6,0.2c2,0,3.7-0.3,4.9-0.8c1.3-0.5,2.2-1.3,2.8-2.4
				c0.6-1.1,0.9-2.5,0.9-4.2c0-1.4-0.3-2.5-0.8-3.3c-0.6-0.8-1.6-1.5-3-2c-1.4-0.5-3.4-1-6-1.5c-3.2-0.6-5.9-1.3-8.2-2.1
				c-2.3-0.8-4.1-1.8-5.5-3c-1.4-1.2-2.5-2.7-3.1-4.6c-0.7-1.9-1-4.1-1-6.8c0-4.1,0.8-7.4,2.3-9.8c1.5-2.4,3.7-4.1,6.6-5.1
				c2.9-1,6.2-1.5,10.1-1.5c1.8,0,3.8,0.1,6,0.3c2.3,0.2,4.5,0.4,6.7,0.7c2.2,0.3,4.1,0.6,5.6,0.9l-0.5,8.8
				c-1.6-0.2-3.4-0.4-5.5-0.6c-2.1-0.2-4.2-0.4-6.2-0.5c-2-0.2-3.8-0.2-5.2-0.2c-2,0-3.6,0.2-4.9,0.6c-1.3,0.4-2.3,1.1-2.9,2
				c-0.6,0.9-1,2-1,3.4c0,1.6,0.3,2.8,1,3.7c0.6,0.9,1.7,1.5,3.2,2.1c1.5,0.5,3.6,1.1,6.3,1.7c3.1,0.7,5.8,1.4,8,2.2
				c2.2,0.8,4,1.8,5.3,2.9c1.4,1.1,2.4,2.6,3,4.3c0.6,1.8,1,4,1,6.6c0,4.3-0.8,7.7-2.3,10.2c-1.5,2.6-3.7,4.4-6.5,5.6
				C295.4,137,292,137.6,288,137.6z"/>
			<path class="st1" d="M327.6,137.7c-2.9,0-5.3-0.4-7.1-1.3c-1.8-0.8-3.1-2.3-3.9-4.4c-0.8-2.1-1.2-5-1.2-8.8v-17.6h-4.7v-8.8h4.7
				V86.1h10.6v10.6h10.2v8.8h-10.2v14.8c0,2.1,0.1,3.7,0.3,4.9c0.2,1.2,0.6,2,1.2,2.5c0.6,0.5,1.6,0.7,2.9,0.7c0.4,0,0.9,0,1.7-0.1
				c0.7-0.1,1.5-0.1,2.2-0.2c0.7-0.1,1.4-0.1,1.8-0.2l0.3,8.5c-0.8,0.2-1.8,0.3-2.9,0.5c-1.1,0.2-2.3,0.3-3.3,0.4
				C329.2,137.6,328.3,137.7,327.6,137.7z"/>
			<path class="st1" d="M359.4,137.6c-4.5,0-8.1-0.7-10.9-2.2c-2.7-1.5-4.7-3.8-5.9-6.9c-1.2-3.1-1.8-7.1-1.8-12.1
				c0-4.8,0.6-8.7,1.9-11.7c1.3-3,3.3-5.2,6.1-6.7c2.8-1.5,6.3-2.2,10.7-2.2c4.4,0,8,0.7,10.7,2.2c2.7,1.5,4.8,3.7,6.1,6.7
				c1.3,3,2,6.9,2,11.7c0,4.9-0.6,9-1.8,12.1c-1.2,3.1-3.2,5.4-5.9,6.9C367.6,136.8,363.9,137.6,359.4,137.6z M359.4,128.8
				c2.2,0,3.9-0.4,5-1.2s1.9-2.2,2.3-4c0.4-1.8,0.6-4.2,0.6-7.2c0-2.9-0.2-5.2-0.7-7c-0.5-1.7-1.3-3-2.4-3.7
				c-1.1-0.7-2.7-1.1-4.8-1.1c-2,0-3.6,0.4-4.7,1.1c-1.1,0.7-2,2-2.4,3.7c-0.5,1.7-0.7,4.1-0.7,7c0,3,0.2,5.4,0.6,7.2
				c0.4,1.8,1.2,3.2,2.3,4C355.5,128.4,357.1,128.8,359.4,128.8z"/>
			<path class="st1" d="M401.7,137.6c-4.6,0-8.1-0.7-10.7-2.1c-2.6-1.4-4.4-3.7-5.4-6.8c-1-3.1-1.6-7.3-1.6-12.4
				c0-5,0.6-9.1,1.8-12.1c1.2-3,3.1-5.2,5.7-6.5c2.6-1.3,6.1-2,10.3-2c1.1,0,2.4,0.1,3.9,0.2c1.5,0.2,3,0.4,4.5,0.6
				c1.5,0.2,2.8,0.5,3.9,0.7l-0.4,8.5c-1-0.1-2.2-0.2-3.4-0.3c-1.3-0.1-2.5-0.2-3.7-0.2s-2.2-0.1-2.9-0.1c-2.3,0-4.1,0.4-5.4,1.1
				c-1.3,0.7-2.2,1.9-2.7,3.5c-0.5,1.6-0.8,3.8-0.8,6.5c0,2.9,0.2,5.3,0.7,7c0.5,1.8,1.3,3,2.6,3.7c1.2,0.7,3.1,1.1,5.5,1.1
				c0.7,0,1.7,0,2.9-0.1c1.2-0.1,2.5-0.2,3.8-0.3c1.3-0.1,2.5-0.2,3.5-0.2l0.3,8.5c-1.1,0.2-2.3,0.4-3.8,0.7c-1.5,0.2-3,0.4-4.5,0.6
				C404.3,137.5,402.9,137.6,401.7,137.6z"/>
			<path class="st1" d="M421,136.7V80.4h10.6v31.4l4.7-0.2l8.3-14.9h11.1l-10.1,18.8l10.7,21.2H445l-8.6-15.9l-4.9,0.2v15.6H421z"/>
		</g>
		<g>
			<g>
				<path class="st0" d="M270.4,202.4V148h20.5c4.5,0,8.3,0.6,11.2,1.9c3,1.2,5.2,3.3,6.7,6c1.5,2.8,2.3,6.5,2.3,11.1
					s-0.8,8.4-2.3,11.3c-1.5,2.9-3.8,5-6.7,6.4c-3,1.4-6.7,2-11.2,2h-9.5v15.8H270.4z M281.4,177.6h9.2c3.3,0,5.7-0.9,7.2-2.7
					c1.4-1.8,2.2-4.4,2.2-7.9c0-3.6-0.7-6.2-2.2-7.7c-1.4-1.5-3.8-2.3-7.2-2.3h-9.2V177.6z"/>
				<path class="st1" d="M317.6,156V147h10.7v9.1H317.6z M317.6,202.4v-40h10.6v40H317.6z"/>
				<path class="st1" d="M337.4,202.4v-56.3H348v56.3H337.4z"/>
				<path class="st1" d="M374.3,203.3c-4.5,0-8.1-0.7-10.9-2.2c-2.7-1.5-4.7-3.8-5.9-6.9c-1.2-3.1-1.8-7.1-1.8-12.1
					c0-4.8,0.6-8.7,1.9-11.7c1.3-3,3.3-5.2,6.1-6.7c2.8-1.5,6.3-2.2,10.7-2.2c4.4,0,8,0.7,10.7,2.2c2.7,1.5,4.8,3.7,6.1,6.7
					c1.3,3,2,6.9,2,11.7c0,4.9-0.6,9-1.8,12.1c-1.2,3.1-3.2,5.4-5.9,6.9C382.5,202.6,378.8,203.3,374.3,203.3z M374.3,194.5
					c2.2,0,3.9-0.4,5-1.2c1.1-0.8,1.9-2.2,2.3-4c0.4-1.8,0.6-4.2,0.6-7.2c0-2.9-0.2-5.2-0.7-7c-0.5-1.7-1.3-3-2.4-3.7
					c-1.1-0.7-2.7-1.1-4.8-1.1c-2,0-3.6,0.4-4.7,1.1c-1.1,0.7-2,2-2.4,3.7c-0.5,1.7-0.7,4.1-0.7,7c0,3,0.2,5.4,0.6,7.2
					c0.4,1.8,1.2,3.2,2.3,4C370.4,194.1,372,194.5,374.3,194.5z"/>
				<path class="st1" d="M414.1,203.4c-2.9,0-5.3-0.4-7.1-1.3c-1.8-0.8-3.1-2.3-3.9-4.4c-0.8-2.1-1.2-5-1.2-8.8v-17.6h-4.7v-8.8h4.7
					v-10.6h10.6v10.6h10.2v8.8h-10.2v14.8c0,2.1,0.1,3.7,0.3,4.9c0.2,1.2,0.6,2,1.2,2.5c0.6,0.5,1.6,0.7,2.9,0.7
					c0.4,0,0.9,0,1.7-0.1c0.7-0.1,1.5-0.1,2.2-0.2c0.7-0.1,1.4-0.1,1.8-0.2l0.3,8.5c-0.8,0.2-1.8,0.3-2.9,0.5
					c-1.1,0.2-2.3,0.3-3.3,0.4C415.8,203.3,414.9,203.4,414.1,203.4z"/>
			</g>
		</g>
	</g>
	<path class="st1" d="M162.2,82.3c-9.5-5.5-21.2-5.5-30.7,0l-51.7,29.8v77.4l67,38.7l67-38.7v-77.4L162.2,82.3z M99.9,112.2
		l31.7-18.3c9.5-5.5,21.2-5.5,30.7,0l36.3,21l-47,27.1L99.9,112.2z M203.9,183.7l-47,27.1v-60.3l47-27.1V183.7z"/>
	<polygon class="st0" points="249.9,142.5 146.9,202 43.8,142.5 79.9,121.7 79.9,133.2 63.8,142.5 146.9,190.5 229.9,142.5 
		213.9,133.2 213.9,121.7 	"/>
</g>
</svg>